<mxfile host="app.diagrams.net" modified="2021-10-16T02:46:07.676Z" agent="5.0 (Macintosh; Intel Mac OS X 10_14_4) AppleWebKit/537.36 (KHTML, like Gecko) Chrome/94.0.4606.71 Safari/537.36" etag="nhNhN7IMhhXg_KNUa28a" version="15.5.4" type="github">
  <diagram id="ddnYbvjZH8iKQE6XM0Kw" name="Page-1">
    <mxGraphModel dx="1412" dy="639" grid="0" gridSize="10" guides="1" tooltips="1" connect="1" arrows="1" fold="1" page="1" pageScale="1" pageWidth="827" pageHeight="1169" math="0" shadow="0">
      <root>
        <mxCell id="0" />
        <mxCell id="1" parent="0" />
        <mxCell id="QJGIojyvVfGgs2RQrmPh-1" value="用神" style="rounded=0;whiteSpace=wrap;html=1;" vertex="1" parent="1">
          <mxGeometry x="449" y="203" width="90" height="60" as="geometry" />
        </mxCell>
        <mxCell id="QJGIojyvVfGgs2RQrmPh-6" value="动变" style="rounded=0;whiteSpace=wrap;html=1;" vertex="1" parent="1">
          <mxGeometry x="509" y="100" width="90" height="60" as="geometry" />
        </mxCell>
        <mxCell id="QJGIojyvVfGgs2RQrmPh-8" value="日月" style="rounded=0;whiteSpace=wrap;html=1;" vertex="1" parent="1">
          <mxGeometry x="359" y="98" width="90" height="60" as="geometry" />
        </mxCell>
      </root>
    </mxGraphModel>
  </diagram>
</mxfile>
